<svg width="16" height="17" viewBox="0 0 16 17" fill="none" xmlns="http://www.w3.org/2000/svg">
<g clip-path="url(#clip0_52_11)">
<path d="M13.6078 3.44582C13.6303 3.26266 13.6366 3.07791 13.6266 2.89367C13.5243 2.9556 13.4242 3.02098 13.3264 3.08969C13.4231 3.20505 13.517 3.32387 13.6078 3.44582ZM3.206 14.2878C2.56409 13.8598 1.98955 13.3409 1.50086 12.7478C1.09833 13.2806 0.734348 13.8408 0.411625 14.4242C0.869295 14.5756 1.91387 14.8797 2.94015 14.8804C3.017 14.678 3.10576 14.48 3.206 14.2878ZM4.55334 15.0091C4.08143 15.2421 3.52705 15.3005 3.25664 15.3165C3.06449 15.8642 2.90792 16.4233 2.78789 16.9907C3.49136 17.0143 5.48767 16.9971 6.55756 16.1141C6.72846 15.9684 6.87035 15.7925 6.97567 15.5956C6.14206 15.5269 5.32447 15.329 4.55334 15.0091ZM11.3006 14.6625C10.939 14.8621 10.5614 15.0322 10.1718 15.1713C10.3281 15.3306 10.5129 15.46 10.7172 15.5529C11.9944 16.1141 13.9174 15.5937 14.5871 15.3812C14.3531 14.9461 13.7936 13.964 13.1446 13.225C12.6099 13.7963 11.9877 14.2814 11.3006 14.6625ZM3.98736 14.7477C3.85153 14.6779 3.71773 14.6043 3.58613 14.527C3.5326 14.6345 3.48241 14.7436 3.43563 14.854C3.62221 14.8338 3.80676 14.7982 3.98736 14.7477ZM13.027 2.75385C13.1995 2.63242 13.3843 2.51585 13.5736 2.40639C13.4089 1.41345 12.9363 0.449658 12.71 0.03125C12.185 0.428839 11.688 0.86132 11.2227 1.32568C11.8917 1.71218 12.4996 2.19335 13.027 2.75385ZM5.55853 14.8896C5.65839 14.9182 5.75897 14.9442 5.86006 14.969C5.51246 14.6918 5.03791 14.0429 4.58358 13.2795C4.40743 13.1848 4.22525 13.1016 4.03817 13.0302C3.32503 12.7356 2.34921 12.3306 1.54534 10.889C0.389999 8.81349 0.366614 6.12141 1.37356 3.80646C-0.109342 5.99357 -0.300463 8.94446 1.13075 11.4318C2.08617 13.1105 3.67668 14.3527 5.55835 14.8898L5.55853 14.8896ZM15.6726 1.92293C15.1215 2.13002 14.584 2.37092 14.0633 2.64422C14.092 2.91206 14.1205 3.4623 13.9596 3.9579C14.3995 4.65385 14.727 5.41314 14.9301 6.2085C15.1151 6.07436 15.2726 5.90684 15.3943 5.7148C16.1108 4.53677 15.8093 2.5979 15.6726 1.92293Z" fill="#191918"/>
<path d="M10.9783 11.5532C9.71765 12.1358 8.37576 12.4488 7.15624 12.4488C7.03176 12.4488 6.90851 12.4457 6.78666 12.4385C5.77919 12.3846 4.91027 12.1129 4.22314 11.6441C4.82024 12.931 5.69092 14.2808 6.1609 14.6376C6.84433 15.1568 7.81031 15.1644 7.82016 15.1644V15.1738C9.35147 15.1242 10.8259 14.5894 12.0252 13.6487C13.2211 12.7108 14.0767 11.4158 14.4638 9.95776C14.5711 9.56166 14.6442 9.1573 14.6822 8.74902C14.1621 9.55895 12.4118 10.8896 10.9783 11.5532Z" fill="#191918"/>
<path d="M1.94239 10.6765C2.66977 11.9819 3.52375 12.3363 4.21157 12.6199C3.81474 11.8769 3.46995 11.0977 3.29166 10.4819C2.49289 7.71854 3.23188 3.8866 5.56085 2.29259C4.97375 2.00337 4.35324 1.78552 3.71294 1.64381C3.39327 1.82572 3.08851 2.03203 2.80147 2.26084C1.87653 3.4794 1.30465 4.92306 1.14696 6.43747C0.988718 7.96486 1.27074 9.46798 1.94239 10.6765ZM5.52076 6.74867C5.35585 6.86047 5.19347 6.97585 5.03373 7.09474C5.22837 7.52599 5.56876 8.18448 6.02186 8.66221C6.77333 9.45479 8.4507 10.4332 9.79329 9.73911C9.89993 9.48025 9.99555 9.21709 10.0799 8.95034C9.86081 8.70471 9.09896 7.92618 7.79259 7.38669C6.78687 6.9721 6.1801 6.83072 5.52076 6.74867ZM12.9743 9.7967C13.6438 9.28098 14.1625 8.76803 14.3408 8.44C14.748 7.69946 14.5885 6.76255 14.5871 6.75353C14.4329 5.94407 14.1431 5.16563 13.7295 4.4502C12.9609 3.1089 11.7861 2.03853 10.3698 1.38916C11.0362 2.08894 11.7715 3.09263 12.1696 4.10864C12.9391 6.07492 13.2045 7.94127 12.9743 9.7967Z" fill="#191918"/>
<path d="M6.01379 2.53418C4.96676 3.16214 4.16219 4.33878 3.74004 5.86479C3.56191 6.51484 3.45991 7.1829 3.43604 7.85587C3.92454 7.3938 4.44443 6.96514 4.99208 6.57289C6.34768 5.60528 7.58549 5.09771 8.68755 5.05833C8.28608 4.5058 7.83592 3.98934 7.34232 3.51498C6.94228 3.13511 6.49603 2.80566 6.01379 2.53418Z" fill="#191918"/>
<path d="M10.283 8.2352C9.99093 7.26631 9.55673 6.3448 8.99422 5.49993C8.02174 5.44893 6.99721 5.85485 6.09277 6.38654C6.61726 6.48455 7.1755 6.64934 7.96776 6.97633C8.81087 7.31774 9.57824 7.81839 10.2268 8.45013C10.2461 8.38022 10.2649 8.30875 10.283 8.2352Z" fill="#191918"/>
<path d="M10.4671 7.37152C10.5258 7.0369 10.5733 6.69274 10.6092 6.33903C10.7764 4.68518 10.4471 2.58602 10.0625 1.95373C9.63528 1.25083 8.78658 0.879951 8.72381 0.85393C8.24377 0.756853 7.75502 0.707802 7.265 0.707522C6.24896 0.706631 5.24461 0.921386 4.32012 1.33722C5.10465 1.55995 6.50051 2.084 7.65585 3.19473C8.88732 4.37068 9.84639 5.79552 10.4673 7.37152H10.4671ZM3.72407 10.358C3.75572 10.4686 3.79352 10.5831 3.83432 10.7014C4.50069 11.4775 5.52838 11.9247 6.81014 11.9941C7.40829 12.0215 8.0075 11.9764 8.5944 11.8599C8.95455 11.3752 9.26839 10.8586 9.5319 10.3167C9.28926 10.3861 9.03783 10.4215 8.785 10.4216C8.36775 10.4168 7.95475 10.3383 7.56548 10.1901C6.85679 9.92293 6.21657 9.50482 5.69049 8.96553C5.23018 8.48017 4.88065 7.83642 4.66737 7.37534C4.23551 7.71918 3.82421 8.08744 3.43555 8.47826C3.45441 9.11403 3.5513 9.7452 3.72407 10.358Z" fill="#191918"/>
<path d="M12.4623 10.1729C12.7863 8.2498 12.5497 6.31666 11.7489 4.26781C11.4984 3.65598 11.1687 3.07868 10.768 2.55029C11.0455 3.59215 11.1824 5.17228 11.0599 6.38345C10.8498 8.46161 10.2578 10.211 9.25488 11.711C9.78087 11.5677 10.2936 11.3806 10.7875 11.1518C11.3734 10.8738 11.9337 10.5463 12.4623 10.1729Z" fill="#191918"/>
</g>
<defs>
<clipPath id="clip0_52_11">
<rect width="16" height="17" fill="white"/>
</clipPath>
</defs>
</svg>
